{"title":"Everybody Dies-AC3-5,1-DVDRip[Eng]2009","uid":4978121,"size":1292917477,"categoryP":"video","categoryS":"movies","magnet":"?xt=urn:btih:c57d73abd707da690728d203c200554af8317ba7&amp;dn=Everybody+Dies-AC3-5%2C1-DVDRip%5BEng%5D2009&amp;tr=udp%3A%2F%2Ftracker.openbittorrent.com%3A80&amp;tr=udp%3A%2F%2Fopen.demonii.com%3A1337&amp;tr=udp%3A%2F%2Ftracker.coppersurfer.tk%3A6969&amp;tr=udp%3A%2F%2Fexodus.desync.com%3A6969","seeders":1,"leechers":0,"uploader":"FatFreddy31","files":-1,"time":1246116784,"description":" &lt;a href=&quot;http://www.imdb.com/title/tt1409090/&quot; rel=&quot;nofollow&quot; target=&quot;_NEW&quot;&gt;http://www.imdb.com/title/tt1409090/&lt;/a&gt;\n\nUser Rating:3.6/10 - 59 votes.\n\nRelease date:\n\nCountry Date \nUSA - 2 May 2009 (Los Angeles, California) \n\nAction.\n\nDirector:Josh Evans\n\nCast:Joanne Baron/Sergio d'Amato/Federico Galavis, and others.\n\nPlot:\nVeteran hitman Jake Lead has second thoughts about knocking off his latest target - Nina Conrad, a tough-talking loner with lots to hide. When he tracks her down, he immediately feels an unusual connection and becomes determined to keep her alive...at any cost. Soon Jake and Nina are on the run, their need for each other growing as they lead a bloody rampage through Los Angeles...\n\nInfo:\n\nGeneral\nComplete name                    : Everybody Dies-AC3-5,1-DVDRip[Eng]2009.avi\nFormat                           : AVI\nFormat/Info                      : Audio Video Interleave\nFile size                        : 1.20 GiB\nDuration                         : 1h 16mn\nOverall bit rate                 : 2 264 Kbps\nWriting application              : VirtualDubMod 1.5.4.1 (build 2178/release)\nWriting library                  : VirtualDubMod build 2178/release\n\nVideo\nFormat                           : MPEG-4 Visual\nFormat profile                   : Simple@L3\nFormat settings, BVOP            : No\nFormat settings, QPel            : No\nFormat settings, GMC             : No warppoints\nFormat settings, Matrix          : Default\nCodec ID                         : XVID\nCodec ID/Hint                    : XviD\nDuration                         : 1h 16mn\nBit rate                         : 1 809 Kbps\nWidth                            : 720 pixels\nHeight                           : 416 pixels\nDisplay aspect ratio             : 16/9\nFrame rate                       : 23.976 fps\nResolution                       : 24 bits\nColorimetry                      : 4:2:0\nScan type                        : Progressive\nBits/(Pixel*Frame)               : 0.252\nStream size                      : 985 MiB (80%)\nWriting library                  : XviD 50\n\nAudio\nFormat                           : AC-3\nFormat/Info                      : Audio Coding 3\nCodec ID                         : 2000\nDuration                         : 1h 16mn\nBit rate mode                    : Constant\nBit rate                         : 448 Kbps\nChannel(s)                       : 6 channels\nChannel positions                : Front: L C R, Surround: L R, LFE\nSampling rate                    : 48.0 KHz\nStream size                      : 244 MiB (20%)\nAlignment                        : Split accross interleaves\nInterleave, duration             : 83 ms (2.00 video frames)\nInterleave, preload duration     : 500 ms\nLanguage                         : English\n\nEnjoy....","torrent":{"xt":"urn:btih:c57d73abd707da690728d203c200554af8317ba7","amp;dn":"Everybody+Dies-AC3-5%2C1-DVDRip%5BEng%5D2009","amp;tr":["udp%3A%2F%2Ftracker.openbittorrent.com%3A80","udp%3A%2F%2Fopen.demonii.com%3A1337","udp%3A%2F%2Ftracker.coppersurfer.tk%3A6969","udp%3A%2F%2Fexodus.desync.com%3A6969"],"infoHash":"c57d73abd707da690728d203c200554af8317ba7","infoHashBuffer":{"type":"Buffer","data":[197,125,115,171,215,7,218,105,7,40,210,3,194,0,85,74,248,49,123,167]},"announce":[],"urlList":[]}}